<svg xmlns="http://www.w3.org/2000/svg" viewBox="0 0 443.7 122.19"><defs><style>.cls-1{fill:#e21417;}.cls-2{fill:#333233;}</style></defs><title>Element 1</title><g id="Ebene_2" data-name="Ebene 2"><g id="Layer_1" data-name="Layer 1"><path class="cls-1" d="M117.07,16.89C108.32,14.39,61.25.64,61.25.64S52.6-2,42.55,3.48s-34.3,18-34.3,18S.42,24.81,0,31.47V90.21a13.9,13.9,0,0,0,9.39,12.43c9.36,3.41,52.69,18,52.69,18s6.67,5,19.58-2.92S118.74,94.8,118.74,94.8s5.83-5,5.83-11.67V25.22S125.82,19.39,117.07,16.89Zm-57,29.73c-2.27-.82-5.89-2-10.18-3.44l.34,43.66-17.77-24L20.2,74l.15-40.27-10-3.14s-8.08-2,.41-6.43L47.83,6s4.86-3.16,14.86-.24,48.62,13.92,48.62,13.92,7.89,2.22.81,6.87c-9.47,6.22-33.38,19.34-33.38,19.34A24.48,24.48,0,0,1,60.06,46.62Zm60.27-11.55V83.55c0,6.63-6.09,9.54-6.09,9.54s-27,17-34.44,20.93-7.15-4.51-7.15-4.51.26-39.74.26-47.42a11.22,11.22,0,0,1,6.36-10.33l35.24-21.2C121.13,26.59,120.33,35.07,120.33,35.07Z"/><path class="cls-2" d="M187.21,44c0,.29-.26.43-.78.43-2,0-4.91-.16-8.88-.5s-7-.51-8.93-.51a18.34,18.34,0,0,0-4.38.27q-1.44.68-1.44,3.75c0,2.48.62,3.88,1.87,4.22a10.66,10.66,0,0,0,2.39.2q2.69,0,8.06-.3t8.07-.29q1.29,0,1.29,6.88,0,6-.43,7a1,1,0,0,1-1.06.7,13.89,13.89,0,0,0-2.46-.27q-4.17-.39-12.65-.39c-1.83,0-2.85,0-3.09,0-1.33.21-2,.77-2,1.68q0,5.54.47,12.77.39,6.52.39,5.82,0,1-2.46,1.17c.44,0-.72,0-3.48,0a53.4,53.4,0,0,1-9.41-.5c-.76-.19-1.14-.59-1.14-1.22q0-4.33.3-13t.29-13q0-5.16-.47-13-.71-12.07-.74-13l0-.47c0-.65.36-1,1.17-1q2.9,0,8.73.11c3.89.08,6.82.12,8.77.12s5.22-.16,9.4-.47,7.31-.47,9.39-.47c1.3,0,2,.54,2.19,1.61,0,1.12.05,2.8.15,5,.06.58.23,1.68.51,3.32A20.1,20.1,0,0,1,187.21,44Z"/><path class="cls-2" d="M238.46,66.86q0,10-2.38,13.59-4.38,6.64-21.84,6.64a46.61,46.61,0,0,1-12.14-1.21q-6.81-1.95-8.83-7.46-1-2.7-1-9.61,0-1.61.12-4.77c.08-2.11.12-3.68.12-4.72q0-4.53-.43-13.6t-.43-13.55c0-.63.27-.94.82-.94q2.38,0,7.2.2t7.21.19c.65,0,1,.29,1,.86q0,5.16-.33,15.45t-.34,15.45q0,6.13,1.29,8.28c1.15,2,3.54,2.93,7.19,2.93q8,0,8-7.77,0-5.67-.28-17t-.27-17c0-.8.33-1.21,1-1.21q2.29,0,6.95-.19t7-.2c.76,0,1.14.31,1.14.94q0,4.48-.37,13.55t-.38,13.6c0,.83,0,2.09,0,3.77S238.46,66,238.46,66.86Z"/><path class="cls-2" d="M298.42,32.44q0,4.45-.37,13.38t-.37,13.42V85c0,.7-.38,1.06-1.13,1.06s-1.57,0-2.83.07-2.21.08-2.84.08-1.69,0-3-.15-2.37-.16-3-.16q-.71,0-1.68-1.29-2.81-3.8-12.65-16.8-2.7-3.63-8.21-10.7a1.63,1.63,0,0,0-.58-.47,1.08,1.08,0,0,0-.32.86q0,4.53.26,13.59t.25,13.6c0,.91-.35,1.37-1.05,1.37H247.29c-.75,0-1.13-.41-1.13-1.22q0-4.21.41-12.73T247,59.32q0-4.5-.37-13.44t-.37-13.4c0-.57.5-.86,1.52-.86,1.51,0,3.37-.1,5.59-.31.52,0,1.54-.22,3.08-.51a18.89,18.89,0,0,1,3.09-.35c.31,0,.79.44,1.44,1.33l14.57,20q2,2.7,5.9,7.89c.65.81,1.21,1.21,1.68,1.21s.51-1,.51-3.05q0-4.09-.45-12.34t-.45-12.38c0-1,.27-1.45.82-1.45q2.34,0,7.07-.19t7.07-.2C298.18,31.23,298.42,31.63,298.42,32.44Z"/><path class="cls-2" d="M356.67,58.34a29.22,29.22,0,0,1-7.39,19.92q-6.52,7.55-18.32,7.93-2.26.07-12.46.08c-1.27,0-3.2,0-5.76-.12S308.25,86,307,86c-.76,0-1.13-.3-1.13-.9q0-4.31.33-12.91t.33-12.91q0-4.5-.33-13.46t-.33-13.42c0-.55.37-.87,1.13-1,1.85-.2,4.88-.31,9.1-.31q12,0,15.59.35,9.25.95,14.49,4.69A23.79,23.79,0,0,1,353.93,46,29.29,29.29,0,0,1,356.67,58.34Zm-15,0a15.08,15.08,0,0,0-3.95-10.78,13.65,13.65,0,0,0-10.55-4.34c-4,0-6,.54-6,1.6q0,2.31-.08,6.94c-.05,3.08-.08,5.4-.08,6.93s0,3.78.08,6.82.08,5.32.08,6.85q0,1.68,6.25,1.68,6.75,0,10.62-4.49Q341.7,65.29,341.71,58.34Z"/><path class="cls-2" d="M409.36,66.86q0,10-2.38,13.59-4.38,6.64-21.84,6.64A46.75,46.75,0,0,1,373,85.88q-6.8-1.95-8.82-7.46-1-2.7-1-9.61,0-1.61.12-4.77c.08-2.11.11-3.68.11-4.72q0-4.53-.42-13.6t-.43-13.55c0-.63.27-.94.82-.94,1.58,0,4,.07,7.2.2s5.62.19,7.21.19c.65,0,1,.29,1,.86q0,5.16-.34,15.45t-.33,15.45q0,6.13,1.29,8.28c1.15,2,3.54,2.93,7.19,2.93q8,0,8-7.77,0-5.67-.28-17t-.27-17c0-.8.33-1.21,1-1.21q2.29,0,6.95-.19t6.95-.2c.76,0,1.14.31,1.14.94q0,4.48-.38,13.55t-.37,13.6c0,.83,0,2.09,0,3.77S409.36,66,409.36,66.86Z"/><path class="cls-2" d="M443.7,68.07q0,7.92-6.68,13.59A28.57,28.57,0,0,1,422.76,88c-.21,0-.38,0-.51,0q-.9,0-4-5.49t-3.09-6.7c0-.29.2-.47.59-.55a41.55,41.55,0,0,0,7.5-2.19q4.07-2,4.06-6,0-2.53-2.66-5.67-4.6-5.31-5-5.89a16,16,0,0,1-2.69-9q0-7.14,6.6-11.87a29.57,29.57,0,0,1,13.24-5.08,6.62,6.62,0,0,1,.67,0c.39,0,.7.31.93.94q1,2.85,4.73,10.31a.93.93,0,0,1,.12.39c0,.44-.24.66-.71.66a7.2,7.2,0,0,1-1.05-.11,7.74,7.74,0,0,0-1.13-.12A9.21,9.21,0,0,0,435.46,43a4.58,4.58,0,0,0-2.54,4.14c0,1.59.93,3.54,2.81,5.86,3.31,4.17,5,6.35,5.19,6.56A15.72,15.72,0,0,1,443.7,68.07Z"/></g></g></svg>