<?xml version="1.0" encoding="utf-8"?>
<!-- Generator: Adobe Illustrator 24.1.0, SVG Export Plug-In . SVG Version: 6.00 Build 0)  -->
<svg version="1.1" id="Ebene_1" xmlns="http://www.w3.org/2000/svg" xmlns:xlink="http://www.w3.org/1999/xlink" x="0px" y="0px"
	 viewBox="0 0 50.6 50.6" style="enable-background:new 0 0 50.6 50.6;" xml:space="preserve">
<style type="text/css">
	.st0{fill:#CF2D25;}
	.st1{fill:#FFFFFF;}
	.st2{fill:#6D6E71;}
	.st3{fill:#F5F6F6;}
	.st4{fill:#595959;}
	.st5{fill:#94A3AA;}
</style>
<g id="_x31_1">
	<g>
		<g>
			<polygon class="st0" points="28.3,6.8 22.8,6.8 22.8,7.3 28.2,12.8 			"/>
			<polygon class="st0" points="22.8,7.3 22.7,41.7 28.1,41.8 28.2,12.8 			"/>
			<polygon class="st0" points="33.6,6.8 28.3,6.8 28.2,12.8 33.5,18.1 			"/>
			<polygon class="st0" points="28.2,12.8 28.1,41.8 33.4,41.8 33.5,18.1 			"/>
			<polygon class="st1" points="23.9,8.4 23.9,32.4 28.2,32.4 28.2,12.8 			"/>
			<polygon class="st1" points="28.3,8.3 23.9,8.3 23.9,8.4 28.2,12.8 			"/>
			<polygon class="st1" points="32.4,8.4 28.3,8.3 28.2,12.8 32.4,16.9 			"/>
			<polygon class="st1" points="28.2,12.8 28.2,32.4 32.4,32.5 32.4,16.9 			"/>
			<path class="st2" d="M28.1,39.3c-1.3,0-2.3-1-2.3-2.3c0-1.3,1-2.3,2.3-2.3c0,0,0,0,0.1,0l0,0c1.2,0,2.2,1.1,2.2,2.3
				C30.4,38.3,29.4,39.3,28.1,39.3L28.1,39.3C28.1,39.3,28.1,39.3,28.1,39.3z"/>
			<path class="st3" d="M26.2,37c0,1.1,0.9,1.9,1.9,1.9c0,0,0,0,0.1,0l0-3.9c0,0,0,0-0.1,0C27,35.1,26.2,36,26.2,37z"/>
			<path class="st3" d="M28.2,35.1l0,3.9c1,0,1.9-0.9,1.9-1.9C30,36,29.2,35.1,28.2,35.1z"/>
		</g>
		<g>
			<polygon class="st4" points="39.2,6.9 33.8,6.8 33.8,18.1 39.2,23.5 			"/>
			<polygon class="st4" points="33.8,18.1 33.7,41.8 39.1,41.8 39.2,23.5 			"/>
			<polygon class="st4" points="44.5,6.9 39.2,6.9 39.2,23.5 44.4,28.8 			"/>
			<polygon class="st4" points="39.2,23.5 39.1,41.8 44.4,41.8 44.4,28.8 			"/>
			<polygon class="st1" points="39.2,8.4 34.9,8.4 34.9,19.2 39.2,23.5 			"/>
			<polygon class="st1" points="34.9,19.2 34.8,32.5 39.1,32.5 39.2,23.5 			"/>
			<polygon class="st1" points="43.4,8.4 39.2,8.4 39.2,23.5 43.3,27.7 			"/>
			<polygon class="st1" points="39.2,23.5 39.1,32.5 43.3,32.5 43.3,27.7 			"/>
			<path class="st2" d="M39,39.4c-1.3,0-2.3-1-2.3-2.3c0-1.3,1-2.3,2.3-2.3c0,0,0,0,0.1,0l0,0c1.2,0,2.2,1.1,2.2,2.3
				C41.3,38.3,40.4,39.3,39,39.4L39,39.4C39.1,39.4,39.1,39.4,39,39.4z"/>
			<path class="st3" d="M37.1,37.1c0,1.1,0.9,1.9,1.9,1.9c0,0,0,0,0.1,0l0-3.9c0,0,0,0-0.1,0C38,35.1,37.1,36,37.1,37.1z"/>
			<path class="st3" d="M39.1,35.1l0,3.9c1,0,1.9-0.9,1.9-1.9C41,36,40.2,35.2,39.1,35.1z"/>
		</g>
		<g>
			
				<rect x="-5.2" y="20.2" transform="matrix(0.2274 -0.9738 0.9738 0.2274 -12.865 29.6286)" class="st0" width="35" height="5.4"/>
			<rect x="0" y="21.5" transform="matrix(0.2274 -0.9738 0.9738 0.2274 -10.0186 35.6549)" class="st0" width="35" height="5.3"/>
			
				<rect x="1.6" y="17.1" transform="matrix(0.2274 -0.9738 0.9738 0.2274 -8.1866 28.185)" class="st1" width="24.1" height="4.3"/>
			
				<rect x="5.8" y="18.1" transform="matrix(0.2274 -0.9738 0.9738 0.2274 -5.9318 32.9588)" class="st1" width="24.1" height="4.2"/>
			<path class="st2" d="M11.9,38.2c-0.1,0-0.3,0-0.4,0l0,0c0,0,0,0-0.1,0c-0.6-0.1-1.1-0.5-1.4-1c-0.3-0.5-0.4-1.1-0.3-1.7
				c0.2-1,1.2-1.8,2.2-1.8c0.2,0,0.3,0,0.5,0.1c0,0,0,0,0.1,0l0,0c1.2,0.3,1.9,1.5,1.6,2.7C13.9,37.5,13,38.2,11.9,38.2L11.9,38.2z"
				/>
			<path class="st1" d="M12.4,34c-1-0.2-2.1,0.4-2.3,1.4c-0.2,1,0.4,2.1,1.4,2.3c0,0,0,0,0.1,0L12.4,34C12.4,34.1,12.4,34.1,12.4,34
				z"/>
			<path class="st3" d="M13.8,36.4c0.2-1-0.4-2-1.4-2.3l-0.9,3.8C12.6,38,13.6,37.4,13.8,36.4z"/>
		</g>
	</g>
	<rect x="1" y="41.9" class="st5" width="48.6" height="3.4"/>
</g>
</svg>
