<svg xmlns="http://www.w3.org/2000/svg" width="20.632" height="27.178" viewBox="0 0 20.632 27.178">
  <g id="Gruppe_70" data-name="Gruppe 70" transform="translate(-953 -343.696)">
    <g id="Gruppe_10" data-name="Gruppe 10" transform="translate(958.479 362.977)">
      <g id="Gruppe_9" data-name="Gruppe 9" transform="translate(0)">
        <path id="Pfad_10" data-name="Pfad 10" d="M165.4,363.235l-.521,1.912h1.042Z" transform="translate(-164.882 -363.235)" fill="#cf2d25"/>
      </g>
    </g>
    <g id="Gruppe_12" data-name="Gruppe 12" transform="translate(953 343.696)">
      <g id="Gruppe_11" data-name="Gruppe 11">
        <path id="Pfad_11" data-name="Pfad 11" d="M76.715,6.386a.8.8,0,0,1-.8-.8V0H64.177a2.519,2.519,0,0,0-2.516,2.516V24.662a2.519,2.519,0,0,0,2.516,2.516h15.6a2.519,2.519,0,0,0,2.516-2.516V6.386ZM65.746,8.341h6.1a.8.8,0,0,1,0,1.592h-6.1a.8.8,0,0,1,0-1.592Zm3.759,14.672a.941.941,0,0,1-.482.136q-.307,0-.364-.207l-.243-.892H66.912l-.243.892q-.057.207-.364.207a.94.94,0,0,1-.482-.136.384.384,0,0,1-.232-.321.388.388,0,0,1,.014-.079l1.327-4.353a.46.46,0,0,1,.26-.275,1.182,1.182,0,0,1,.935,0,.46.46,0,0,1,.26.275l1.334,4.353a.4.4,0,0,1,.014.079A.384.384,0,0,1,69.506,23.013Zm3.261-1.249a.308.308,0,0,1-.239.121h-.685v.726a.308.308,0,0,1-.125.254.513.513,0,0,1-.325.1.532.532,0,0,1-.325-.1.3.3,0,0,1-.132-.254v-.726h-.692A.294.294,0,0,1,70,21.768a.482.482,0,0,1-.093-.307A.5.5,0,0,1,70,21.154a.289.289,0,0,1,.243-.125h.692v-.718a.316.316,0,0,1,.136-.251.5.5,0,0,1,.321-.109.481.481,0,0,1,.321.109.321.321,0,0,1,.128.251v.718h.685a.3.3,0,0,1,.239.128.468.468,0,0,1,.1.3A.452.452,0,0,1,72.767,21.765Zm2.619-6.149H65.746a.8.8,0,0,1,0-1.592h9.639a.8.8,0,0,1,0,1.592Zm2.822-2.822H65.746a.8.8,0,0,1,0-1.592H78.207a.8.8,0,0,1,0,1.592Z" transform="translate(-61.661)" fill="#cf2d25"/>
      </g>
    </g>
    <g id="Gruppe_14" data-name="Gruppe 14" transform="translate(968.851 344.198)">
      <g id="Gruppe_13" data-name="Gruppe 13" transform="translate(0)">
        <path id="Pfad_12" data-name="Pfad 12" d="M364.307,13.459l-3.773-3.769a2.55,2.55,0,0,0-.27-.234v4.292h4.292A2.554,2.554,0,0,0,364.307,13.459Z" transform="translate(-360.264 -9.455)" fill="#cf2d25"/>
      </g>
    </g>
  </g>
</svg>
