<?xml version="1.0" encoding="utf-8"?>
<!-- Generator: Adobe Illustrator 24.1.0, SVG Export Plug-In . SVG Version: 6.00 Build 0)  -->
<svg version="1.1" id="Ebene_1" xmlns="http://www.w3.org/2000/svg" xmlns:xlink="http://www.w3.org/1999/xlink" x="0px" y="0px"
	 viewBox="0 0 20.6 27.2" style="enable-background:new 0 0 20.6 27.2;" xml:space="preserve">
<style type="text/css">
	.st0{fill:#C4C4C4;}
</style>
<g id="Gruppe_70" transform="translate(-953 -343.696)">
	<g id="Gruppe_10" transform="translate(958.479 362.977)">
		<g id="Gruppe_9" transform="translate(0)">
			<path id="Pfad_10" class="st0" d="M0.5,0L0,1.9h1L0.5,0z"/>
		</g>
	</g>
	<g id="Gruppe_12" transform="translate(953 343.696)">
		<g id="Gruppe_11">
			<path id="Pfad_11" class="st0" d="M15.1,6.4c-0.4,0-0.8-0.4-0.8-0.8c0,0,0,0,0,0V0H2.5C1.1,0,0,1.1,0,2.5v22.1
				c0,1.4,1.1,2.5,2.5,2.5h15.6c1.4,0,2.5-1.1,2.5-2.5V6.4H15.1z M4.1,8.3h6.1c0.4,0,0.8,0.4,0.7,0.9c0,0.4-0.3,0.7-0.7,0.7H4.1
				c-0.4,0-0.8-0.4-0.7-0.9C3.4,8.7,3.7,8.4,4.1,8.3z M7.8,23c-0.1,0.1-0.3,0.1-0.5,0.1c-0.2,0-0.3-0.1-0.4-0.2L6.8,22H5.3L5,22.9
				c0,0.1-0.2,0.2-0.4,0.2c-0.2,0-0.3,0-0.5-0.1C4,23,3.9,22.8,3.9,22.7c0,0,0-0.1,0-0.1l1.3-4.4c0-0.1,0.1-0.2,0.3-0.3
				c0.3-0.1,0.6-0.1,0.9,0c0.1,0.1,0.2,0.2,0.3,0.3l1.3,4.4c0,0,0,0.1,0,0.1C8.1,22.8,8,23,7.8,23L7.8,23z M11.1,21.8
				c-0.1,0.1-0.1,0.1-0.2,0.1h-0.7v0.7c0,0.1,0,0.2-0.1,0.3C10,22.9,9.8,23,9.7,23c-0.1,0-0.2,0-0.3-0.1c-0.1-0.1-0.1-0.2-0.1-0.3
				v-0.7H8.6c-0.1,0-0.2,0-0.2-0.1c-0.1-0.1-0.1-0.2-0.1-0.3c0-0.1,0-0.2,0.1-0.3C8.4,21.1,8.5,21,8.6,21h0.7v-0.7
				c0-0.1,0.1-0.2,0.1-0.3C9.5,20,9.6,19.9,9.7,20c0.1,0,0.2,0,0.3,0.1c0.1,0.1,0.1,0.2,0.1,0.3V21h0.7c0.1,0,0.2,0,0.2,0.1
				c0.1,0.1,0.1,0.2,0.1,0.3C11.2,21.6,11.2,21.7,11.1,21.8L11.1,21.8z M13.7,15.6H4.1c-0.4,0-0.8-0.4-0.7-0.9
				c0-0.4,0.3-0.7,0.7-0.7h9.6c0.4,0,0.8,0.4,0.7,0.9C14.4,15.3,14.1,15.6,13.7,15.6z M16.5,12.8H4.1c-0.4,0-0.8-0.4-0.7-0.9
				c0-0.4,0.3-0.7,0.7-0.7h12.5c0.4,0,0.8,0.4,0.7,0.9C17.2,12.5,16.9,12.8,16.5,12.8z"/>
		</g>
	</g>
	<g id="Gruppe_14" transform="translate(968.851 344.198)">
		<g id="Gruppe_13" transform="translate(0)">
			<path id="Pfad_12" class="st0" d="M4,4L0.3,0.2C0.2,0.2,0.1,0.1,0,0v4.3h4.3C4.2,4.2,4.1,4.1,4,4z"/>
		</g>
	</g>
</g>
</svg>
