<?xml version="1.0" encoding="utf-8"?>
<!-- Generator: Adobe Illustrator 24.1.0, SVG Export Plug-In . SVG Version: 6.00 Build 0)  -->
<svg version="1.1" id="Gruppe_8" xmlns="http://www.w3.org/2000/svg" xmlns:xlink="http://www.w3.org/1999/xlink" x="0px" y="0px"
	 viewBox="0 0 22.9 27.2" style="enable-background:new 0 0 22.9 27.2;" xml:space="preserve">
<style type="text/css">
	.st0{fill:#C4C4C4;}
</style>
<path id="Pfad_2" class="st0" d="M5.6,1.6h11.5v4l1.5,1.6V1.1c0-0.6-0.5-1.1-1.1-1.1c0,0,0,0,0,0H5.2C4.6,0,4.1,0.5,4.1,1.1v1.8h1.5
	L5.6,1.6L5.6,1.6z"/>
<path id="Pfad_3" class="st0" d="M5.8,5.9H13l0,2.8c0,0.6,0.5,1.2,1.2,1.2c0,0,0,0,0,0H17v6.9h1.7v-6.7c0-0.8-0.3-1.5-0.8-2
	l-3.1-3.1c-0.5-0.5-1.2-0.8-2-0.8H5.3c-0.7,0-1.2,0.5-1.2,1.2v11.4h1.7V5.9z M14.6,7.2l1.1,1.1h-1.1V7.2z"/>
<path id="Pfad_4" class="st0" d="M7.8,9.4h2.3c0.5,0,0.8-0.4,0.8-0.8s-0.4-0.8-0.8-0.8l0,0H7.8c-0.5,0-0.8,0.4-0.8,0.8
	S7.3,9.4,7.8,9.4z"/>
<path id="Pfad_5" class="st0" d="M15.1,11H7.8c-0.5,0-0.8,0.4-0.8,0.8c0,0.5,0.4,0.8,0.8,0.8h7.3c0.5,0,0.8-0.4,0.8-0.8
	S15.5,11,15.1,11z"/>
<path id="Pfad_6" class="st0" d="M15.1,14.1H7.8c-0.5,0-0.8,0.4-0.8,0.8c0,0.5,0.4,0.8,0.8,0.8l0,0h7.3c0.5,0,0.8-0.4,0.8-0.8
	C15.9,14.5,15.6,14.1,15.1,14.1z"/>
<path id="Pfad_7" class="st0" d="M19.8,12.8V16l0.5,0.9c0.2,0.3,0.1,0.7-0.2,0.8c-0.1,0.1-0.2,0.1-0.3,0.1H3.1
	c-0.3,0-0.6-0.3-0.6-0.6c0-0.1,0-0.2,0.1-0.3L3,16.2V13l-2.5,4C0.2,17.5,0,18.2,0,18.8V25c0,1.2,1,2.2,2.2,2.2c0,0,0,0,0,0h18.5
	c1.2,0,2.2-1,2.2-2.2v0v-6.2c0-0.7-0.2-1.3-0.5-1.8L19.8,12.8z"/>
</svg>
