<svg id="Gruppe_8" data-name="Gruppe 8" xmlns="http://www.w3.org/2000/svg" width="22.943" height="27.178" viewBox="0 0 22.943 27.178">
  <path id="Pfad_2" data-name="Pfad 2" d="M8.758,1.553H20.214l0,4.012,1.52,1.645V1.1A1.092,1.092,0,0,0,20.649,0H8.311a1.105,1.105,0,0,0-1.1,1.1v1.81H8.759V1.553Z" transform="translate(-3.117)" fill="#cf2d25"/>
  <path id="Pfad_3" data-name="Pfad 3" d="M8.9,6.606h7.183l-.01,2.824A1.167,1.167,0,0,0,17.237,10.6h2.9v6.869h1.694V10.8A2.829,2.829,0,0,0,21,8.8L17.948,5.746a2.837,2.837,0,0,0-2-.831H8.407a1.2,1.2,0,0,0-1.2,1.2V17.467H8.9V6.606Zm8.839,1.265,1.08,1.068-1.08,0Z" transform="translate(-3.117 -0.682)" fill="#cf2d25"/>
  <path id="Pfad_4" data-name="Pfad 4" d="M11.324,10.7h2.3a.847.847,0,0,0,0-1.694h-2.3a.847.847,0,0,0,0,1.694Z" transform="translate(-3.573 -1.25)" fill="#cf2d25"/>
  <path id="Pfad_5" data-name="Pfad 5" d="M18.664,12.721H11.325a.822.822,0,1,0,0,1.645h7.339a.822.822,0,1,0,0-1.645Z" transform="translate(-3.573 -1.766)" fill="#cf2d25"/>
  <path id="Pfad_6" data-name="Pfad 6" d="M18.664,16.379H11.325a.845.845,0,0,0,0,1.691h7.339a.845.845,0,0,0,0-1.691Z" transform="translate(-3.573 -2.273)" fill="#cf2d25"/>
  <path id="Pfad_7" data-name="Pfad 7" d="M22.25,14.84v3.219l.538.879a.618.618,0,0,1-.526.941H5.567a.617.617,0,0,1-.527-.94l.427-.7V15.021l-2.49,4.03a3.474,3.474,0,0,0-.519,1.827v6.163a2.2,2.2,0,0,0,2.2,2.2H23.2a2.2,2.2,0,0,0,2.2-2.2V20.877a3.477,3.477,0,0,0-.53-1.844Z" transform="translate(-2.458 -2.06)" fill="#cf2d25"/>
</svg>
