<svg id="Zusammenfassung" xmlns="http://www.w3.org/2000/svg" width="21.52" height="26.874" viewBox="0 0 21.52 26.874">
  <path id="Pfad_13" data-name="Pfad 13" d="M365.139,9.215v5.069h4.593Z" transform="translate(-348.65 -8.731)" fill="#cf2d25"/>
  <path id="Pfad_14" data-name="Pfad 14" d="M66.7,7.127a.787.787,0,0,1-.787-.787V0H53.263A2.266,2.266,0,0,0,51,2.263V24.611a2.266,2.266,0,0,0,2.263,2.263H70.257a2.266,2.266,0,0,0,2.263-2.263V7.127Zm-.673,3.749a.787.787,0,0,1,1.113,0l.461.461,1.651-1.651A.787.787,0,1,1,70.367,10.8l-2.208,2.208a.787.787,0,0,1-1.113,0l-1.017-1.017A.787.787,0,0,1,66.028,10.876Zm0,5.354a.787.787,0,0,1,1.113,0l.461.461,1.651-1.651a.787.787,0,0,1,1.113,1.113l-2.208,2.208a.787.787,0,0,1-1.113,0l-1.017-1.017a.787.787,0,0,1,0-1.113ZM54.861,2.678h2.464a.787.787,0,0,1,0,1.575H54.861a.787.787,0,0,1,0-1.575Zm0,2.735h5.357a.787.787,0,0,1,0,1.575H54.861a.787.787,0,0,1,0-1.575Zm8.131,17.432H54.861a.787.787,0,1,1,0-1.575h8.132a.787.787,0,1,1,0,1.575Zm0-5.169H54.861a.787.787,0,1,1,0-1.575h8.132a.787.787,0,1,1,0,1.575Zm0-5.354H54.861a.787.787,0,0,1,0-1.575h8.132a.787.787,0,1,1,0,1.575Zm7.375,9L68.159,23.53a.787.787,0,0,1-1.113,0l-1.017-1.017A.787.787,0,0,1,67.142,21.4l.461.461,1.651-1.651a.787.787,0,1,1,1.113,1.113Z" transform="translate(-51)" fill="#cf2d25"/>
</svg>
