<?xml version="1.0" encoding="utf-8"?>
<!-- Generator: Adobe Illustrator 24.1.0, SVG Export Plug-In . SVG Version: 6.00 Build 0)  -->
<svg version="1.1" id="Zusammenfassung" xmlns="http://www.w3.org/2000/svg" xmlns:xlink="http://www.w3.org/1999/xlink" x="0px"
	 y="0px" viewBox="0 0 21.5 26.9" style="enable-background:new 0 0 21.5 26.9;" xml:space="preserve">
<style type="text/css">
	.st0{fill:#C4C4C4;}
</style>
<path id="Pfad_13" class="st0" d="M16.5,0.5v5.1h4.6L16.5,0.5z"/>
<path id="Pfad_14" class="st0" d="M15.7,7.1c-0.4,0-0.8-0.4-0.8-0.8c0,0,0,0,0,0V0H2.3C1,0,0,1,0,2.3v22.3c0,1.2,1,2.3,2.3,2.3h17
	c1.2,0,2.3-1,2.3-2.3V7.1H15.7z M15,10.9c0.3-0.3,0.8-0.3,1.1,0c0,0,0,0,0,0l0.5,0.5l1.7-1.7c0.3-0.3,0.8-0.3,1.1,0
	c0.3,0.3,0.3,0.8,0,1.1l0,0L17.2,13c-0.3,0.3-0.8,0.3-1.1,0c0,0,0,0,0,0l-1-1C14.7,11.7,14.7,11.2,15,10.9C15,10.9,15,10.9,15,10.9
	L15,10.9z M15,16.2c0.3-0.3,0.8-0.3,1.1,0c0,0,0,0,0,0l0.5,0.5l1.7-1.7c0.3-0.3,0.8-0.3,1.1,0c0.3,0.3,0.3,0.8,0,1.1l0,0l-2.2,2.2
	c-0.3,0.3-0.8,0.3-1.1,0c0,0,0,0,0,0l-1-1C14.7,17,14.7,16.5,15,16.2C15,16.2,15,16.2,15,16.2L15,16.2z M3.9,2.7h2.5
	c0.4,0,0.8,0.4,0.8,0.8S6.8,4.3,6.3,4.3l0,0H3.9c-0.4,0-0.8-0.4-0.8-0.8S3.4,2.7,3.9,2.7z M3.9,5.4h5.4c0.4,0,0.8,0.4,0.8,0.8
	S9.7,7,9.2,7l0,0H3.9C3.4,7,3.1,6.6,3.1,6.2S3.4,5.4,3.9,5.4z M12,22.8H3.9c-0.4,0-0.8-0.4-0.8-0.8s0.4-0.8,0.8-0.8H12
	c0.4,0,0.8,0.4,0.8,0.8S12.4,22.8,12,22.8L12,22.8L12,22.8z M12,17.7H3.9c-0.4,0-0.8-0.4-0.8-0.8s0.4-0.8,0.8-0.8H12
	c0.4,0,0.8,0.4,0.8,0.8S12.4,17.7,12,17.7L12,17.7L12,17.7z M12,12.3H3.9c-0.4,0-0.8-0.4-0.8-0.8c0-0.4,0.4-0.8,0.8-0.8H12
	c0.4,0,0.8,0.4,0.8,0.8C12.8,12,12.4,12.3,12,12.3L12,12.3z M19.4,21.3l-2.2,2.2c-0.3,0.3-0.8,0.3-1.1,0c0,0,0,0,0,0l-1-1
	c-0.3-0.3-0.3-0.8,0-1.1c0.3-0.3,0.8-0.3,1.1,0l0,0l0.5,0.5l1.7-1.7c0.3-0.3,0.8-0.3,1.1,0C19.7,20.5,19.7,21,19.4,21.3L19.4,21.3
	L19.4,21.3z"/>
</svg>
