<?xml version="1.0" encoding="utf-8"?>
<!-- Generator: Adobe Illustrator 24.0.3, SVG Export Plug-In . SVG Version: 6.00 Build 0)  -->
<svg version="1.1" id="Ebene_1" xmlns="http://www.w3.org/2000/svg" xmlns:xlink="http://www.w3.org/1999/xlink" x="0px" y="0px"
	 viewBox="0 0 300 300" style="enable-background:new 0 0 300 300;" xml:space="preserve">
<style type="text/css">
	.st0{fill:#939393;}
	.st1{fill:#FFFFFF;}
</style>
<g>
	<circle class="st0" cx="150" cy="150" r="150"/>
</g>
<path class="st1" d="M213.5,162.5H86.5c-6.9,0-12.5-5.6-12.5-12.5v0c0-6.9,5.6-12.5,12.5-12.5h126.9c6.9,0,12.5,5.6,12.5,12.5v0
	C226,156.9,220.4,162.5,213.5,162.5z"/>
<path class="st1" d="M162.5,86.5v126.9c0,6.9-5.6,12.5-12.5,12.5h0c-6.9,0-12.5-5.6-12.5-12.5V86.5c0-6.9,5.6-12.5,12.5-12.5h0
	C156.9,74,162.5,79.6,162.5,86.5z"/>
</svg>
