<?xml version="1.0" encoding="utf-8"?>
<!-- Generator: Adobe Illustrator 24.1.0, SVG Export Plug-In . SVG Version: 6.00 Build 0)  -->
<svg version="1.1" id="Ebene_1" xmlns="http://www.w3.org/2000/svg" xmlns:xlink="http://www.w3.org/1999/xlink" x="0px" y="0px"
	 viewBox="0 0 300 300" style="enable-background:new 0 0 300 300;" xml:space="preserve">
<style type="text/css">
	.st0{fill:#D83A36;}
	.st1{fill:#CF2D25;}
	.st2{fill:#B72825;}
	.st3{fill:#F5F6F6;}
	.st4{fill:#FFFFFF;}
	.st5{fill:#ECEDEE;}
	.st6{fill:#E2E3E4;}
	.st7{fill:#6D6E71;}
	.st8{fill:#636363;}
	.st9{fill:#595959;}
	.st10{fill:#545454;}
	.st11{fill:#E6E7E8;}
	.st12{fill:#94A3AA;}
</style>
<g id="_x31_1">
	<g>
		<g>
			<polygon class="st0" points="167,44.3 135.9,44.2 135.9,47.1 166.9,78.3 			"/>
			<polygon class="st1" points="135.9,47.1 135.3,244.2 166.4,244.3 166.9,78.3 			"/>
			<polygon class="st1" points="197.3,44.4 167,44.3 166.9,78.3 197.1,108.7 			"/>
			<polygon class="st2" points="166.9,78.3 166.4,244.3 196.7,244.4 197.1,108.7 			"/>
			<polygon class="st3" points="142.3,53.5 141.8,190.8 166.6,190.9 166.9,78.3 			"/>
			<polygon class="st4" points="167,53 142.3,53 142.3,53.5 166.9,78.3 			"/>
			<polygon class="st5" points="190.9,53.1 167,53 166.9,78.3 190.8,102.3 			"/>
			<polygon class="st6" points="166.9,78.3 166.6,190.9 190.5,191 190.8,102.3 			"/>
			<path class="st7" d="M166,230.3c-7.2,0-13-5.9-13-13.1c0-7.2,5.9-13,13.1-13c0.1,0,0.2,0,0.4,0l0.1,0c7.1,0.3,12.6,6,12.5,13.1
				c0,7.1-5.6,12.8-12.6,13l-0.1,0C166.3,230.3,166.2,230.3,166,230.3z"/>
			<path class="st3" d="M155,217.2c0,6.1,4.9,11.1,11.1,11.1c0.1,0,0.3,0,0.4,0l0.1-22.2c-0.1,0-0.3,0-0.4,0
				C160,206.1,155,211.1,155,217.2z"/>
			<path class="st6" d="M166.5,206.2l-0.1,22.2c6-0.2,10.7-5.1,10.7-11.1C177.2,211.3,172.5,206.4,166.5,206.2z"/>
		</g>
		<g>
			<polygon class="st8" points="229.8,44.5 198.7,44.4 198.5,108.7 229.5,139.9 			"/>
			<polygon class="st9" points="198.5,108.7 198.1,244.4 229.1,244.5 229.5,139.9 			"/>
			<polygon class="st9" points="260.1,44.6 229.8,44.5 229.5,139.9 259.7,170.2 			"/>
			<polygon class="st10" points="229.5,139.9 229.1,244.5 259.4,244.6 259.7,170.2 			"/>
			<polygon class="st4" points="229.8,53.2 205,53.2 204.8,115.1 229.5,139.9 			"/>
			<polygon class="st3" points="204.8,115.1 204.6,191 229.3,191.1 229.5,139.9 			"/>
			<polygon class="st5" points="253.7,53.3 229.8,53.2 229.5,139.9 253.3,163.8 			"/>
			<polygon class="st6" points="229.5,139.9 229.3,191.1 253.2,191.2 253.3,163.8 			"/>
			<path class="st7" d="M228.8,230.5c-7.2,0-13-5.9-13-13.1c0-7.2,5.9-13,13.1-13c0.1,0,0.3,0,0.4,0l0.1,0c7.1,0.3,12.6,6,12.6,13.1
				c0,7.1-5.6,12.8-12.6,13l-0.1,0C229,230.5,228.9,230.5,228.8,230.5z"/>
			<path class="st3" d="M217.7,217.4c0,6.1,4.9,11.1,11.1,11.1c0.1,0,0.3,0,0.4,0l0.1-22.2c-0.1,0-0.3,0-0.4,0
				C222.7,206.3,217.7,211.3,217.7,217.4z"/>
			<path class="st6" d="M229.3,206.4l-0.1,22.2c6-0.2,10.7-5.1,10.7-11.1C240,211.5,235.2,206.6,229.3,206.4z"/>
		</g>
		<g>
			
				<rect x="-24.7" y="120.9" transform="matrix(0.2274 -0.9738 0.9738 0.2274 -74.6989 178.7713)" class="st1" width="200.1" height="31.1"/>
			
				<rect x="5.2" y="128.3" transform="matrix(0.2274 -0.9738 0.9738 0.2274 -58.4058 213.2677)" class="st2" width="200.1" height="30.3"/>
			
				<rect x="14.6" y="103.1" transform="matrix(0.2274 -0.9738 0.9738 0.2274 -47.9186 170.5079)" class="st4" width="137.9" height="24.7"/>
			
				<rect x="38.2" y="109" transform="matrix(0.2274 -0.9738 0.9738 0.2274 -35.0118 197.8345)" class="st11" width="137.9" height="23.9"/>
			<path class="st7" d="M73.4,224c-0.8,0-1.7-0.1-2.5-0.2l-0.1,0c-0.1,0-0.2,0-0.4-0.1c-3.4-0.8-6.3-2.9-8.1-5.8
				c-1.8-3-2.4-6.5-1.6-9.9c1.4-6,6.6-10.1,12.7-10.1c1,0,2,0.1,2.9,0.3c0.1,0,0.2,0.1,0.4,0.1l0.1,0c6.8,1.9,10.9,8.7,9.3,15.6
				C84.8,219.9,79.6,224,73.4,224L73.4,224z"/>
			<path class="st4" d="M76,200.2c-6-1.4-12,2.3-13.3,8.3c-1.4,6,2.3,12,8.3,13.3c0.1,0,0.3,0,0.4,0.1l5-21.6
				C76.2,200.2,76.1,200.2,76,200.2z"/>
			<path class="st11" d="M84.3,213.5c1.4-5.8-2.2-11.7-7.9-13.2l-5,21.6C77.2,223,82.9,219.3,84.3,213.5z"/>
		</g>
	</g>
	<rect x="11" y="245.2" class="st12" width="278" height="19.3"/>
</g>
</svg>
